<svg viewBox="0 0 40 64" xmlns="http://www.w3.org/2000/svg" fill-rule="evenodd" clip-rule="evenodd" stroke-linecap="round" stroke-linejoin="round" stroke-miterlimit="1.5"><path d="M38.865 20.27C38.865 9.86 30.41 1.41 20 1.41S1.146 9.86 1.146 20.27v23.368c0 10.41 8.444 18.861 18.854 18.861 10.41 0 18.865-8.451 18.865-18.861V20.27zM20 5.997v36.468" fill="none" stroke="#5f5c84" stroke-width="1.999"/><path d="M1195.64 750.592c0-5.693-7.74-10.314-17.27-10.314s-17.26 4.621-17.26 10.314v35.296c0 5.693 7.73 10.315 17.26 10.315 9.53 0 17.27-4.622 17.27-10.315v-35.296z" fill="#fff" stroke="#5f5c84" stroke-width="8.33" transform="matrix(.17407 0 0 .29141 -185.123 -200.075)"/></svg>