<svg viewBox="0 0 51 64" xmlns="http://www.w3.org/2000/svg" fill-rule="evenodd" clip-rule="evenodd" stroke-linejoin="round" stroke-miterlimit="2"><path d="M47.782 27.18a4.711 4.711 0 000-6.66L28.83 1.565a4.711 4.711 0 00-6.66 0L3.218 20.518a4.711 4.711 0 000 6.66l18.953 18.954a4.711 4.711 0 006.66 0l18.95-18.951z" fill="#f15a26"/><path d="M1.097 42.115L20.05 61.07a7.71 7.71 0 0010.903-.001l18.95-18.95a2.999 2.999 0 000-4.243 2.999 2.999 0 00-4.242 0l-18.95 18.95a1.713 1.713 0 01-2.418 0L5.34 37.874a2.999 2.999 0 00-4.243 0 2.999 2.999 0 000 4.242z" fill="#fac1ae"/></svg>