<svg viewBox="0 0 49 65" xmlns="http://www.w3.org/2000/svg" fill-rule="evenodd" clip-rule="evenodd" stroke-linejoin="round" stroke-miterlimit="2"><path d="M42.303 3.312a3 3 0 00-3-3H3.222a3 3 0 00-3 3v57.983a3 3 0 003 3h36.081a3 3 0 003-3V3.312zm-36.081 3v51.982h30.081V6.312H6.222z" fill="#ffc261"/><path d="M43.497 7.502L23.372 27.846a3.003 3.003 0 00.022 4.242 3.001 3.001 0 004.243-.022l20.125-20.345a2.999 2.999 0 10-4.265-4.22z" fill="#ffe7c0"/><path d="M12.146 43.869h16.811a3.004 3.004 0 000-6.005h-16.81a3.004 3.004 0 000 6.005zm-.001 9.191h8.406a3.004 3.004 0 000-6.005h-8.406a3.004 3.004 0 000 6.005zm.001-17.824h4.203a3.002 3.002 0 000-6.005h-4.203c-1.656 0-3 1.345-3 2.997a3.004 3.004 0 003 3.008z" fill="#ffc261"/></svg>