<svg viewBox="0 0 51 53" xmlns="http://www.w3.org/2000/svg" fill-rule="evenodd" clip-rule="evenodd" stroke-linejoin="round" stroke-miterlimit="2"><path d="M16.002 12.997L32.71 1.235a2.996 2.996 0 014.723 2.454v41.42c0 1.12-.62 2.147-1.617 2.663a2.995 2.995 0 01-3.106-.21l-16.708-11.76H3.277c-1.653 0-3-1.343-3-3V15.997c0-1.657 1.347-3 3-3h12.725zM31.434 9.47l-12.753 8.98a3.012 3.012 0 01-1.731.547H6.277v10.804H16.95c.62 0 1.225.191 1.731.547l12.753 8.98V9.47z" fill="#93288e"/><path d="M20.636 47.798l-4.936-8.42a3.004 3.004 0 00-5.18 3.038l4.935 8.419a3.004 3.004 0 005.18-3.037zM44.961 10.15l-3.866 3.866a3.004 3.004 0 004.246 4.246l3.867-3.866a3.004 3.004 0 00-4.246-4.246zm4.247 24.263l-3.867-3.867a3.004 3.004 0 00-4.246 4.246l3.866 3.867a3.004 3.004 0 004.247-4.246zm-1.321-13.261H42.42c-1.656 0-3 1.346-3 2.997a3.004 3.004 0 003 3.008h5.467a3.004 3.004 0 000-6.005z" fill="#ca7bb6"/></svg>