<svg viewBox="0 0 51 64" xmlns="http://www.w3.org/2000/svg" fill-rule="evenodd" clip-rule="evenodd" stroke-linejoin="round" stroke-miterlimit="2"><path d="M50.687 3.186a3.002 3.002 0 00-3-2.999H3.23c-1.657 0-3 1.347-3 2.999v57.768a3.002 3.002 0 003 2.998h44.455c1.657 0 3-1.346 3-2.998V3.186zM6.23 6.185v51.76h38.456V6.185H6.231z" fill="#54a4db"/><path d="M12.966 44.82h25.271a3.002 3.002 0 000-6.005H12.966a3.002 3.002 0 000 6.005zm-1.7-30.639l-2.248-1.728a2.995 2.995 0 01-.553-4.2 3.005 3.005 0 014.207-.558l2.827 2.176c.38.285.686.668.89 1.105l4.89 10.436h10.109l1.648-2.844H28.42a3 3 0 01-3-2.998 2.994 2.994 0 013-2.997h9.818a2.997 2.997 0 012.596 4.496l-5.12 8.85a2.994 2.994 0 01-2.596 1.498H19.372a3.008 3.008 0 01-2.717-1.729l-5.389-11.507z" fill="#1060c1"/><circle cx="1372.68" cy="1735.18" r="3.211" fill="#1060c1" transform="translate(-1352.112 -1703.113)"/><circle cx="1372.68" cy="1735.18" r="3.211" fill="#1060c1" transform="translate(-1340.924 -1703.113)"/><path d="M12.966 54.748h25.271a3.002 3.002 0 000-6.005H12.966a3.002 3.002 0 000 6.005z" fill="#1060c1"/></svg>