<svg viewBox="0 0 299 104" xmlns="http://www.w3.org/2000/svg" fill-rule="evenodd" clip-rule="evenodd" stroke-linejoin="round" stroke-miterlimit="2"><path d="M.397 103.296V92.044h3.769c1.763 0 3.219.53 4.335 1.591 1.116 1.077 1.682 2.412 1.682 4.035 0 1.607-.566 2.941-1.682 4.018-1.133 1.077-2.572 1.608-4.335 1.608H.396zm.84-.772h2.929c1.536 0 2.782-.466 3.736-1.382.938-.916 1.407-2.074 1.407-3.472 0-1.366-.469-2.524-1.407-3.456-.954-.932-2.2-1.398-3.736-1.398H1.238v9.708z" fill="#fff" fill-rule="nonzero"/><path fill="#fff" d="M13.16 92.044H14v11.252h-.84z"/><path d="M22.668 103.489c-1.73 0-3.122-.563-4.14-1.672-1.036-1.11-1.554-2.491-1.554-4.147 0-1.575.518-2.942 1.57-4.099 1.05-1.141 2.393-1.72 4.027-1.72.874 0 1.634.129 2.28.37a6.62 6.62 0 011.861 1.11l-.55.626c-1.035-.9-2.248-1.35-3.64-1.35-1.342 0-2.458.498-3.348 1.479-.89.98-1.326 2.186-1.326 3.584 0 1.495.436 2.7 1.31 3.649.873.948 2.054 1.43 3.542 1.43.68 0 1.343-.128 1.99-.37a5.234 5.234 0 001.618-.916v-3.23h-3.786v-.772h4.594v4.34a6.84 6.84 0 01-1.99 1.205 6.383 6.383 0 01-2.458.483z" fill="#fff" fill-rule="nonzero"/><path fill="#fff" d="M30.272 92.044h.841v11.252h-.84z"/><path d="M37.732 103.296v-10.48h-3.947v-.772h8.735v.772h-3.946v10.48h-.842zm6.368 0l5.274-11.332h.809l5.273 11.332h-.922l-1.44-3.15h-6.68l-1.44 3.15h-.873zm2.67-3.906h5.969l-2.977-6.51-2.992 6.51zm11.08 3.906V92.044h.842v10.48h6.648v.772h-7.49zm14.868 0V92.044h4.109c1.261 0 2.28.306 3.057.916.76.627 1.148 1.48 1.148 2.556 0 1.141-.42 2.01-1.261 2.636-.858.627-1.91.949-3.155.949H73.56v4.195h-.841zm.841-4.967h3.106c1.051 0 1.909-.257 2.556-.772.647-.498.97-1.173.97-2.025 0-.868-.307-1.543-.938-2.01-.615-.465-1.44-.706-2.491-.706h-3.203v5.513zm9.964 4.967V92.044h.841v10.48h6.649v.772h-7.49zm9.043 0l5.273-11.332h.809l5.273 11.332H103l-1.44-3.15h-6.68l-1.44 3.15h-.873zm2.669-3.906h5.969l-2.977-6.51-2.992 6.51zm14.219 3.906v-10.48h-3.947v-.772h8.735v.772h-3.947v10.48h-.84zm7.345 0V92.044h7.974v.772h-7.133v4.613h6.405v.771h-6.405v5.096h-.841zm19.898-1.527c-1.068 1.141-2.443 1.72-4.11 1.72-1.665 0-3.04-.579-4.092-1.72-1.051-1.141-1.585-2.508-1.585-4.099 0-1.591.534-2.958 1.602-4.099 1.067-1.141 2.442-1.72 4.108-1.72 1.666 0 3.041.563 4.093 1.704 1.051 1.141 1.585 2.524 1.585 4.115 0 1.591-.534 2.958-1.601 4.099zm-7.522-.515c.922.98 2.07 1.48 3.445 1.48s2.524-.483 3.446-1.464c.906-.98 1.358-2.17 1.358-3.6 0-1.398-.452-2.604-1.39-3.584-.907-.981-2.071-1.48-3.446-1.48s-2.524.483-3.43 1.463c-.921.981-1.374 2.17-1.374 3.601 0 1.398.469 2.604 1.39 3.584zm11.984 2.042V92.044h4.755c1.375 0 2.443.37 3.187 1.11.566.562.857 1.27.857 2.121 0 .916-.307 1.64-.906 2.186-.598.547-1.407.884-2.41 1.029l3.737 4.806h-1.068l-3.607-4.662H142v4.662h-.841zm.84-5.417h3.818c.97 0 1.763-.241 2.378-.707.615-.45.922-1.093.922-1.897 0-.755-.291-1.366-.857-1.8-.566-.434-1.375-.66-2.394-.66H142v5.064zm10.853 5.417V92.044h.793l4.545 6.655 4.545-6.655h.793v11.252h-.841v-9.773l-4.48 6.478h-.066l-4.48-6.478v9.773h-.81zm18.895 0V92.044h7.975v.772h-7.134v4.613h6.406v.771h-6.406v5.096h-.841zm19.898-1.527c-1.068 1.141-2.443 1.72-4.109 1.72s-3.041-.579-4.092-1.72c-1.052-1.141-1.586-2.508-1.586-4.099 0-1.591.534-2.958 1.602-4.099 1.067-1.141 2.442-1.72 4.108-1.72 1.667 0 3.041.563 4.093 1.704 1.051 1.141 1.585 2.524 1.585 4.115 0 1.591-.534 2.958-1.601 4.099zm-7.522-.515c.922.98 2.07 1.48 3.445 1.48s2.524-.483 3.446-1.464c.906-.98 1.359-2.17 1.359-3.6 0-1.398-.453-2.604-1.392-3.584-.905-.981-2.07-1.48-3.445-1.48s-2.523.483-3.43 1.463c-.921.981-1.374 2.17-1.374 3.601 0 1.398.469 2.604 1.39 3.584zm11.984 2.042V92.044h4.755c1.375 0 2.443.37 3.187 1.11.566.562.857 1.27.857 2.121 0 .916-.307 1.64-.905 2.186-.599.547-1.408.884-2.41 1.029l3.736 4.806h-1.068l-3.607-4.662h-3.704v4.662h-.841zm.84-5.417h3.818c.97 0 1.764-.241 2.378-.707.615-.45.922-1.093.922-1.897 0-.755-.29-1.366-.857-1.8-.566-.434-1.375-.66-2.394-.66h-3.866v5.064zm20.835 5.61c-1.602 0-2.944-.563-4.028-1.688-1.068-1.11-1.601-2.492-1.601-4.131 0-1.607.533-2.974 1.617-4.115s2.426-1.704 4.044-1.704c.922 0 1.715.161 2.378.466.647.306 1.31.772 1.973 1.383l-.55.562c-1.148-1.109-2.41-1.655-3.817-1.655-1.359 0-2.491.482-3.397 1.446-.922.98-1.375 2.186-1.375 3.617 0 1.43.47 2.62 1.391 3.6.922.981 2.054 1.463 3.397 1.463.793 0 1.488-.144 2.087-.434.598-.29 1.213-.723 1.811-1.318l.567.547c-.664.643-1.343 1.125-2.039 1.462-.695.338-1.52.499-2.458.499zm16.094-1.72c-1.068 1.141-2.443 1.72-4.11 1.72-1.665 0-3.04-.579-4.092-1.72-1.051-1.141-1.585-2.508-1.585-4.099 0-1.591.534-2.958 1.602-4.099 1.067-1.141 2.442-1.72 4.108-1.72 1.666 0 3.041.563 4.093 1.704 1.051 1.141 1.585 2.524 1.585 4.115 0 1.591-.534 2.958-1.601 4.099zm-7.522-.515c.922.98 2.07 1.48 3.445 1.48s2.524-.483 3.446-1.464c.906-.98 1.358-2.17 1.358-3.6 0-1.398-.452-2.604-1.39-3.584-.907-.981-2.071-1.48-3.446-1.48s-2.524.483-3.43 1.463c-.921.981-1.374 2.17-1.374 3.601 0 1.398.469 2.604 1.39 3.584zm11.989 2.042V92.044h.793l4.545 6.655 4.546-6.655h.792v11.252h-.84v-9.773L243.696 100h-.064l-4.481-6.478v9.773h-.809zm14.041 0V92.044h4.109c1.262 0 2.28.306 3.057.916.76.627 1.149 1.48 1.149 2.556 0 1.141-.42 2.01-1.262 2.636-.857.627-1.909.949-3.154.949h-3.058v4.195h-.84zm.841-4.967h3.106c1.052 0 1.909-.257 2.556-.772.647-.498.97-1.173.97-2.025 0-.868-.307-1.543-.938-2.01-.614-.465-1.44-.706-2.49-.706h-3.204v5.513zm8.994 4.967l5.273-11.332h.81l5.272 11.332h-.922l-1.44-3.15h-6.68l-1.44 3.15h-.873zm2.669-3.906h5.969l-2.976-6.51-2.993 6.51zm11.082 3.906V92.044h.792l7.813 9.79v-9.79h.808v11.252h-.63l-7.975-9.998v9.998h-.809zm16.467 0v-4.453l-4.853-6.799h1.051l4.239 6.044 4.254-6.044h1.003l-4.853 6.783v4.469h-.841z" fill="#fff" fill-rule="nonzero"/><g fill="#fff"><path d="M94.357 6.054h24.716c6.057 0 11.388 1.13 16.073 3.473 4.684 2.423 8.319 5.653 10.904 9.934 2.584 4.281 3.876 9.289 3.876 14.862s-1.292 10.5-3.876 14.78c-2.585 4.281-6.22 7.593-10.904 10.016-4.685 2.261-10.016 3.473-16.073 3.473H94.357V6.054zm24.231 47.653c4.12 0 7.835-.807 10.985-2.423 3.15-1.534 5.573-3.796 7.269-6.784 1.696-2.908 2.504-6.3 2.504-10.177s-.808-7.27-2.504-10.177c-1.696-2.989-4.12-5.25-7.27-6.866-3.15-1.534-6.865-2.342-10.984-2.342h-13.73v38.77h13.73zm38.285-34.246h10.096v43.131h-10.096v-43.13zm5.088-7.107c-1.858 0-3.392-.566-4.604-1.777-1.211-1.131-1.857-2.585-1.857-4.281 0-1.696.646-3.15 1.857-4.281C158.57.803 160.103.238 161.961.238s3.392.565 4.604 1.696c1.211 1.05 1.858 2.423 1.858 4.12 0 1.776-.566 3.23-1.777 4.442-1.212 1.292-2.827 1.858-4.685 1.858zm38.931 6.623c4.2 0 7.915.888 11.308 2.746 3.311 1.857 5.896 4.442 7.753 7.754 1.858 3.311 2.827 7.188 2.827 11.55 0 4.361-.969 8.238-2.827 11.55-1.857 3.392-4.442 5.977-7.753 7.834-3.393 1.858-7.108 2.746-11.308 2.746-5.815 0-10.42-1.938-13.812-5.815v20.92h-10.096v-58.8h9.612v5.653c1.696-2.02 3.715-3.554 6.219-4.604 2.423-1.05 5.088-1.534 8.077-1.534zm-1.13 35.538c3.715 0 6.784-1.211 9.126-3.715 2.423-2.504 3.635-5.735 3.635-9.773 0-4.039-1.212-7.27-3.635-9.773-2.342-2.504-5.411-3.716-9.127-3.716-2.423 0-4.604.566-6.542 1.696-1.939 1.05-3.473 2.666-4.604 4.685-1.13 2.02-1.696 4.442-1.696 7.108 0 2.665.565 5.088 1.696 7.107 1.13 2.02 2.665 3.635 4.604 4.685 1.938 1.13 4.12 1.696 6.542 1.696zm46.926-44.261c-4.28 0-6.38 2.342-6.38 6.946v2.584h11.872v8.077h-11.55v34.731h-10.096v-34.73h-7.107v-8.078h7.107v-2.746c0-4.604 1.373-8.32 4.039-10.984 2.665-2.666 6.461-3.958 11.388-3.958 3.877 0 6.946.807 9.127 2.342l-2.827 7.592c-1.696-1.211-3.554-1.776-5.573-1.776zm28.431 52.903c-4.362 0-8.32-.969-11.792-2.827-3.474-1.857-6.22-4.523-8.158-7.915-2.02-3.311-2.989-7.108-2.989-11.388 0-4.281.97-8.077 2.989-11.389 1.938-3.311 4.684-5.977 8.158-7.834 3.473-1.858 7.43-2.827 11.792-2.827 4.442 0 8.4.969 11.873 2.827 3.473 1.857 6.22 4.523 8.238 7.834 1.939 3.312 2.908 7.108 2.908 11.389 0 4.28-.97 8.077-2.908 11.388-2.019 3.392-4.765 6.058-8.238 7.915-3.473 1.858-7.43 2.827-11.873 2.827zm0-8.642c3.715 0 6.785-1.211 9.208-3.715 2.423-2.504 3.634-5.735 3.634-9.773 0-4.039-1.211-7.27-3.634-9.773-2.423-2.504-5.493-3.716-9.208-3.716-3.716 0-6.785 1.212-9.127 3.716-2.423 2.503-3.635 5.734-3.635 9.773 0 4.038 1.212 7.269 3.635 9.773 2.342 2.504 5.411 3.715 9.127 3.715z" fill-rule="nonzero"/><path d="M53.836 64.172l5.374 9.63a39.245 39.245 0 01-19.093 4.928 39.245 39.245 0 01-19.093-4.928l5.373-9.63a28.26 28.26 0 0013.72 3.531 28.26 28.26 0 0013.719-3.53zM34.603.233v11.178c-13.047 2.571-22.9 14.082-22.9 27.879a28.298 28.298 0 006.123 17.612l-5.68 10.183C5.058 59.949.676 50.125.676 39.29.677 19.394 15.44 2.92 34.604.233zm11.027 0C64.794 2.92 79.557 19.394 79.557 39.29c0 10.836-4.381 20.659-11.47 27.795l-5.68-10.183A28.28 28.28 0 0068.53 39.29c0-13.797-9.852-25.308-22.9-27.879V.233z"/><circle cx="4725.05" cy="1641.79" r="150.391" transform="translate(-487.392 -144.003) scale(.11164)"/></g></svg>